<svg xmlns="http://www.w3.org/2000/svg" xmlns:xlink="http://www.w3.org/1999/xlink" width="24" height="24" viewBox="0 0 24 24">
  <path fill="#666" d="M16,3 C19.3137085,3 22,5.6862915 22,9 C22,13.8676014 18.8420446,17.8150457 12.8944272,20.7888544 C12.3313722,21.0703819 11.6686278,21.0703819 11.1055728,20.7888544 C5.1579554,17.8150457 2,13.8676014 2,9 C2,5.6862915 4.6862915,3 8,3 C9.4250252,3 10.8493189,3.50126714 12,4.35113682 C13.1506811,3.50126714 14.5749748,3 16,3 Z"/>
  <path fill="#fff" d="M12,7.25041053 C11.2053387,5.91807095 9.58172226,5 8,5 C5.790861,5 4,6.790861 4,9 C4,13 6.66666667,16.3333333 12,19 C17.3333333,16.3333333 20,13 20,9 C20,6.790861 18.209139,5 16,5 C14.4182777,5 12.7946613,5.91807095 12,7.25041053 Z"/>
</svg>
