<svg xmlns="http://www.w3.org/2000/svg" width="24" height="24" viewBox="0 0 32 32">
  <path fill-rule="evenodd" clip-rule="evenodd" fill="#FF4060" d="M21 5.5a7 7 0 0 1 7 7c0 5.77-3.703 10.652-10.78 14.61a2.5 2.5 0 0 1-2.44 0C7.703 23.152 4 18.27 4 12.5a7 7 0 0 1 7-7c1.83 0 3.621.914 5 2.328C17.379 6.414 19.17 5.5 21 5.5z"/>
  <path fill-rule="evenodd" clip-rule="evenodd" fill="#fff" d="M29.98 20.523A3.998 3.998 0 0 1 32 24v4a4 4 0 0 1-4 4h-7a4 4 0 0 1-4-4v-4c0-1.489.814-2.788 2.02-3.477a5.5 5.5 0 0 1 10.96 0z"/>
  <path fill-rule="evenodd" clip-rule="evenodd" fill="#1F1F1F" d="M28 22a2 2 0 0 1 2 2v4a2 2 0 0 1-2 2h-7a2 2 0 0 1-2-2v-4a2 2 0 0 1 2-2v-1a3.5 3.5 0 1 1 7 0v1zm-5-1a1.5 1.5 0 0 1 3 0v1h-3v-1z"/>
</svg>
